<?xml version="1.0" standalone="no"?>
<!DOCTYPE svg PUBLIC "-//W3C//DTD SVG 20010904//EN"
 "http://www.w3.org/TR/2001/REC-SVG-20010904/DTD/svg10.dtd">
<svg version="1.0" xmlns="http://www.w3.org/2000/svg"
 width="1340.000000pt" height="1340.000000pt" viewBox="0 0 1340.000000 1340.000000"
 preserveAspectRatio="xMidYMid meet">
<metadata>
Created by potrace 1.11, written by Peter Selinger 2001-2013
</metadata>
<g transform="translate(0.000000,1340.000000) scale(0.100000,-0.100000)"
fill="#000000" stroke="none">
<path d="M6300 13389 c-1413 -85 -2753 -609 -3845 -1504 -172 -141 -268 -228
-453 -409 -1529 -1503 -2242 -3626 -1931 -5756 239 -1641 1092 -3147 2384
-4205 487 -399 1039 -734 1620 -982 1663 -711 3587 -711 5250 0 893 381 1705
961 2349 1677 1119 1242 1726 2822 1726 4490 0 1668 -607 3248 -1726 4490
-206 230 -486 496 -729 695 -1015 832 -2248 1346 -3550 1479 -338 35 -767 45
-1095 25z m990 -393 c811 -83 1547 -294 2245 -647 937 -473 1743 -1170 2343
-2026 567 -810 932 -1723 1076 -2698 51 -347 61 -490 61 -925 0 -435 -10 -578
-61 -925 -244 -1646 -1128 -3129 -2466 -4133 -844 -633 -1822 -1042 -2863
-1196 -347 -51 -490 -61 -925 -61 -435 0 -578 10 -925 61 -1646 244 -3129
1128 -4133 2466 -704 939 -1117 2007 -1239 3208 -25 249 -25 911 0 1160 84
823 293 1553 648 2255 622 1232 1633 2234 2864 2840 759 373 1529 576 2425
639 137 9 803 -3 950 -18z"/>
<path d="M6120 12579 c-74 -15 -165 -65 -214 -120 -91 -102 -131 -232 -123
-399 14 -272 135 -451 342 -505 202 -52 404 34 486 208 28 60 59 210 46 223
-7 7 -255 -14 -269 -22 -4 -3 -8 -19 -8 -35 0 -43 -35 -106 -70 -124 -16 -8
-47 -15 -70 -15 -101 0 -152 74 -169 248 -9 89 1 188 24 233 59 114 227 79
261 -54 6 -26 10 -28 38 -23 17 3 78 8 134 12 l104 7 -7 36 c-9 55 -69 174
-109 218 -86 96 -247 141 -396 112z"/>
<path d="M7120 12580 c-177 -37 -318 -199 -355 -407 -69 -384 132 -653 469
-630 249 17 416 236 419 547 2 236 -102 406 -289 470 -66 23 -182 32 -244 20z
m160 -259 c22 -12 44 -36 59 -66 65 -126 17 -400 -79 -450 -40 -21 -109 -19
-146 4 -55 34 -69 79 -69 226 0 114 3 136 23 180 52 113 128 151 212 106z"/>
<path d="M7936 12423 c-8 -27 -76 -239 -151 -471 -75 -233 -134 -426 -132
-428 12 -12 232 -73 238 -67 10 11 94 271 134 417 41 146 42 138 16 -209 -11
-137 -17 -252 -14 -255 2 -2 44 -17 94 -31 l89 -27 18 27 c10 14 81 128 157
253 76 125 140 226 142 224 2 -2 -6 -25 -18 -52 -12 -27 -54 -148 -94 -269
l-73 -220 120 -38 c66 -21 122 -37 124 -34 9 8 305 939 301 943 -8 8 -291 94
-309 94 -11 0 -69 -85 -177 -262 -126 -205 -161 -256 -161 -233 0 17 9 155 21
308 11 153 19 280 17 281 -4 3 -315 96 -321 96 -3 0 -12 -21 -21 -47z"/>
<path d="M4860 12248 c-29 -95 -60 -194 -67 -220 l-14 -48 -216 -2 -215 -3
171 -124 c98 -71 171 -131 171 -140 0 -9 -29 -107 -64 -218 -35 -112 -62 -203
-60 -203 3 0 85 61 184 135 l180 135 177 -130 c97 -71 178 -128 180 -127 1 2
-18 64 -42 138 -25 74 -56 168 -69 210 l-24 77 170 128 c93 70 172 132 175
137 3 5 -84 6 -215 2 l-221 -8 -66 209 c-37 115 -70 212 -74 217 -4 4 -31 -70
-61 -165z"/>
<path d="M9037 11903 c-52 -92 -162 -288 -245 -435 l-150 -267 127 -65 126
-65 70 125 c38 69 72 130 76 136 4 6 37 -6 90 -35 191 -103 317 -101 439 10
75 67 140 204 140 294 0 21 -9 63 -20 93 -34 89 -103 144 -336 267 -109 57
-204 105 -211 107 -6 2 -54 -73 -106 -165z m299 -203 c92 -52 114 -101 73
-166 -39 -64 -83 -70 -176 -22 -35 18 -63 36 -63 41 0 17 95 177 105 177 6 0
33 -13 61 -30z"/>
<path d="M3638 11699 c-60 -14 -143 -60 -322 -178 -113 -75 -165 -115 -160
-124 6 -9 553 -782 570 -806 5 -6 214 134 214 143 0 5 -43 69 -96 142 -52 74
-92 139 -89 144 13 20 111 70 138 70 45 0 60 -13 146 -125 45 -58 86 -105 92
-105 5 0 57 32 115 71 87 58 103 73 93 85 -6 8 -17 14 -24 14 -7 0 -42 39 -78
88 -113 151 -184 203 -256 187 l-29 -6 16 44 c14 38 14 52 3 100 -23 104 -121
221 -209 253 -42 15 -71 16 -124 3z m72 -272 c49 -38 63 -96 32 -133 -17 -21
-100 -80 -120 -86 -5 -2 -35 32 -66 74 l-55 77 62 40 c65 42 118 52 147 28z"/>
<path d="M9658 11212 c-235 -163 -428 -299 -428 -302 0 -5 177 -136 207 -153
9 -6 30 4 64 30 28 21 55 37 61 35 23 -6 207 -148 208 -160 0 -7 -9 -30 -19
-50 -11 -21 -21 -45 -23 -54 -4 -22 213 -184 223 -165 8 14 366 927 371 944 3
13 -207 173 -226 173 -6 0 -203 -134 -438 -298z m286 -183 c-36 -79 -69 -147
-73 -151 -6 -7 -131 76 -131 87 0 7 263 215 267 211 2 -1 -27 -67 -63 -147z"/>
<path d="M2733 11048 l-231 -211 351 -359 c194 -197 355 -357 358 -356 4 2
113 100 242 218 l236 215 -82 83 c-45 45 -84 82 -87 82 -3 0 -67 -56 -142
-125 -75 -69 -140 -125 -145 -125 -5 0 -31 23 -58 51 l-50 50 40 37 c22 20 75
69 117 108 l77 70 -84 84 -85 84 -32 -30 c-18 -17 -71 -65 -117 -107 l-85 -77
-48 47 c-27 26 -47 50 -46 53 2 4 62 60 133 125 72 66 132 123 134 128 3 9
-147 167 -159 167 -3 0 -109 -95 -237 -212z"/>
<path d="M6345 11189 c-557 -43 -1107 -194 -1620 -444 -462 -225 -830 -490
-1205 -865 -286 -285 -477 -527 -676 -856 -654 -1079 -821 -2413 -453 -3631
130 -433 364 -914 621 -1277 289 -409 695 -815 1104 -1104 262 -186 643 -389
957 -511 924 -359 1977 -399 2934 -110 433 130 914 364 1277 621 409 289 815
695 1104 1104 257 363 491 844 621 1277 368 1218 201 2552 -453 3631 -199 329
-390 571 -676 856 -375 375 -743 640 -1205 865 -522 255 -1062 401 -1641 444
-161 13 -527 12 -689 0z m805 -264 c723 -83 1399 -336 1972 -738 1399 -982
2075 -2659 1742 -4325 -254 -1270 -1093 -2369 -2259 -2958 -1196 -603 -2614
-603 -3810 0 -1433 723 -2345 2199 -2345 3796 0 857 273 1724 763 2422 746
1064 1892 1716 3193 1818 154 12 584 4 744 -15z"/>
<path d="M6287 9970 c-176 -30 -324 -184 -384 -400 -26 -93 -25 -396 1 -490
50 -182 146 -310 278 -370 97 -45 221 -53 326 -21 158 48 275 182 332 383 27
93 38 304 21 404 -59 351 -282 543 -574 494z m154 -323 c81 -55 114 -148 113
-327 0 -233 -58 -340 -183 -340 -42 0 -56 5 -84 30 -68 59 -104 202 -94 365 7
105 25 171 62 227 45 67 124 87 186 45z"/>
<path d="M7350 9969 c-68 -13 -180 -73 -227 -121 -132 -136 -199 -373 -173
-619 24 -237 102 -395 240 -487 124 -83 299 -96 438 -32 134 62 235 195 284
375 17 65 21 108 22 235 0 179 -13 247 -72 374 -100 211 -296 317 -512 275z
m150 -314 c90 -47 138 -210 119 -412 -10 -113 -39 -192 -85 -232 -29 -26 -43
-31 -86 -31 -69 0 -110 27 -142 93 -68 140 -59 425 17 530 43 62 117 83 177
52z"/>
<path d="M4550 9928 c0 -11 208 -1117 226 -1200 l6 -28 153 0 153 0 10 63 c6
34 30 191 53 349 24 158 44 286 45 285 2 -2 26 -153 54 -337 27 -184 52 -341
55 -348 3 -10 40 -12 157 -10 l152 3 111 585 c61 322 114 600 118 618 l7 32
-155 0 c-129 0 -155 -2 -155 -15 0 -22 -89 -667 -97 -695 -5 -22 -44 216 -103
628 l-12 83 -132 -3 -131 -3 -41 -280 c-23 -154 -47 -320 -54 -368 -7 -48 -14
-87 -15 -85 -2 2 -24 154 -49 338 -26 184 -49 350 -52 368 l-6 32 -149 0
c-113 0 -149 -3 -149 -12z"/>
<path d="M8050 9320 l0 -620 238 0 c265 0 325 9 424 62 109 58 186 175 224
343 26 113 26 371 0 470 -49 186 -147 296 -307 346 -53 17 -94 19 -320 19
l-259 0 0 -620z m491 304 c74 -43 99 -119 99 -296 0 -131 -18 -209 -62 -262
-40 -48 -72 -64 -152 -72 l-66 -7 0 333 0 333 74 -5 c48 -3 85 -12 107 -24z"/>
<path d="M7293 8550 c-110 -23 -223 -109 -262 -199 -66 -153 -42 -347 55 -451
55 -59 109 -88 256 -139 149 -51 172 -63 188 -101 27 -65 -23 -115 -114 -115
-66 0 -102 23 -127 81 l-20 44 -150 0 -150 0 7 -47 c37 -257 255 -409 520
-364 136 24 249 101 298 205 52 109 59 277 16 373 -25 56 -87 124 -147 159
-23 14 -104 47 -179 74 -156 56 -184 76 -184 131 0 45 17 60 74 66 62 7 110
-18 130 -68 l16 -39 146 0 147 0 -6 45 c-22 154 -112 278 -240 327 -59 23
-206 33 -274 18z"/>
<path d="M4730 8521 c0 -18 231 -1224 236 -1233 3 -4 72 -8 154 -8 133 0 149
2 154 18 2 9 26 164 52 344 27 181 51 325 54 320 4 -4 28 -151 54 -327 26
-176 49 -328 52 -337 5 -16 21 -18 155 -18 111 0 151 3 154 13 5 12 235 1219
235 1231 0 3 -67 6 -149 6 -110 0 -150 -3 -153 -12 -3 -7 -27 -174 -54 -370
-27 -196 -50 -355 -53 -353 -3 4 -110 703 -111 728 0 4 -58 7 -130 7 l-129 0
-6 -32 c-3 -18 -28 -186 -55 -372 -28 -187 -51 -341 -53 -342 -1 -2 -24 158
-51 354 -27 196 -51 365 -54 375 -4 15 -20 17 -153 17 -82 0 -149 -4 -149 -9z"/>
<path d="M6110 7905 l0 -625 395 0 395 0 0 150 0 150 -240 0 -240 0 0 95 0 95
195 0 195 0 0 145 0 145 -195 0 -195 0 0 85 0 85 230 0 230 0 0 150 0 150
-385 0 -385 0 0 -625z"/>
<path d="M7897 8523 c-4 -3 -7 -78 -7 -165 l0 -158 140 0 140 0 2 -457 3 -458
152 -3 153 -3 2 458 3 458 138 3 137 3 0 164 0 165 -428 0 c-236 0 -432 -3
-435 -7z"/>
<path d="M7108 7121 c-107 -34 -179 -97 -225 -196 -26 -55 -28 -69 -28 -180 0
-146 19 -197 99 -273 63 -60 101 -80 231 -122 165 -54 205 -81 205 -137 0 -92
-157 -122 -224 -42 -14 17 -29 41 -32 55 l-6 24 -149 0 -149 0 0 -29 c0 -41
33 -142 63 -194 81 -138 256 -214 433 -188 108 16 176 45 240 103 88 81 124
171 124 314 0 98 -20 169 -63 226 -63 82 -105 106 -349 192 -88 31 -128 65
-128 107 0 46 31 69 94 69 43 0 60 -5 84 -25 16 -14 33 -36 36 -50 l6 -25 150
0 150 0 -6 28 c-45 200 -126 304 -273 346 -74 22 -210 20 -283 -3z"/>
<path d="M4970 6490 l0 -620 395 0 395 0 0 145 0 145 -240 0 -240 0 0 95 0 95
195 0 195 0 0 145 0 145 -195 0 -195 0 0 90 0 90 230 0 230 0 0 145 0 145
-385 0 -385 0 0 -620z"/>
<path d="M6121 7033 c-11 -43 -88 -322 -169 -620 l-149 -543 153 0 153 0 10
38 c5 20 13 55 18 77 l9 40 151 3 152 3 10 -38 c5 -21 13 -56 18 -78 l9 -40
157 -3 c86 -1 157 -1 157 0 0 2 -76 280 -169 618 l-168 615 -161 3 -160 2 -21
-77z m227 -526 c23 -105 42 -198 42 -204 0 -10 -25 -13 -90 -13 -49 0 -90 3
-90 8 -1 19 85 402 89 402 3 0 25 -87 49 -193z"/>
<path d="M7750 6945 l0 -165 135 0 135 0 0 -455 0 -455 160 0 160 0 0 455 0
455 140 0 140 0 0 165 0 165 -435 0 -435 0 0 -165z"/>
<path d="M5398 5476 c-129 -35 -219 -180 -188 -303 24 -97 71 -156 155 -194
37 -17 74 -19 437 -19 l397 0 -47 -47 c-74 -75 -91 -158 -48 -248 22 -49 75
-105 99 -105 6 0 -13 -15 -43 -32 -68 -42 -115 -109 -131 -189 -11 -58 -14
-61 -57 -81 l-44 -21 -72 23 c-145 46 -186 78 -186 146 0 14 -15 40 -34 62
l-34 37 -209 3 c-195 2 -210 1 -241 -18 -62 -38 -62 -38 -62 -582 0 -459 1
-496 18 -528 33 -63 62 -70 275 -70 204 0 226 5 266 56 12 15 21 38 21 53 0
49 12 56 162 96 84 22 87 23 93 5 9 -30 146 -151 216 -193 245 -144 648 -152
907 -17 88 45 211 144 242 195 l21 33 82 -22 c137 -38 153 -48 160 -92 4 -22
14 -50 23 -63 31 -44 69 -51 272 -51 180 0 191 1 223 23 18 12 39 34 46 47 10
19 13 148 13 538 l0 512 -34 38 -34 37 -209 3 c-195 2 -210 1 -241 -18 -36
-22 -62 -72 -62 -119 0 -25 -8 -35 -42 -55 -24 -14 -80 -37 -125 -52 l-82 -27
-48 21 c-46 20 -48 22 -55 72 -5 28 -17 68 -27 89 -21 40 -87 105 -126 123
l-25 11 40 35 c62 52 83 101 78 183 -4 75 -28 120 -89 164 l-33 25 393 0 c273
0 406 4 433 12 22 6 60 30 85 52 144 127 116 349 -55 433 l-57 28 -1185 2
c-932 1 -1195 -1 -1232 -11z m2437 -144 c42 -33 54 -59 55 -114 0 -39 -6 -54
-31 -82 -17 -20 -47 -40 -67 -46 -24 -6 -437 -10 -1187 -10 l-1151 0 -44 23
c-48 25 -80 73 -80 123 0 41 37 95 80 117 33 16 107 17 1215 15 l1180 -3 30
-23z m-1075 -362 l0 -70 -150 0 -150 0 0 70 0 70 150 0 150 0 0 -70z m203
-131 c13 -6 32 -24 41 -40 23 -39 13 -81 -26 -114 l-30 -25 -329 0 c-275 0
-335 3 -359 15 -59 30 -68 98 -21 146 l29 29 336 0 c220 0 343 -4 359 -11z
m-203 -284 l0 -55 -150 0 -150 0 0 55 0 55 150 0 150 0 0 -55z m220 -127 c59
-30 90 -77 90 -138 0 -25 -7 -55 -15 -66 -8 -10 -15 -22 -15 -25 0 -3 35 -16
78 -29 42 -12 95 -33 116 -47 l39 -25 96 28 c115 34 236 92 275 133 20 21 30
43 33 75 l6 46 162 0 163 0 -1 -470 -1 -470 -162 0 -161 0 -6 43 c-10 75 -72
111 -292 167 -128 33 -129 33 -190 -54 -77 -108 -212 -196 -360 -233 -110 -27
-355 -25 -458 5 -155 44 -261 115 -348 231 -28 39 -57 72 -63 74 -16 6 -221
-46 -298 -75 -85 -32 -118 -65 -118 -117 l0 -41 -165 0 -165 0 0 470 0 470
165 0 165 0 0 -44 c0 -49 21 -77 88 -120 51 -32 164 -77 253 -101 l65 -17 36
24 c20 14 72 35 116 48 78 22 80 23 67 44 -25 40 -28 91 -8 137 42 94 59 98
448 99 313 0 322 -1 365 -22z"/>
<path d="M10351 10697 c-206 -178 -376 -328 -378 -334 -2 -6 36 -53 85 -104
l89 -93 104 89 c57 50 144 127 193 173 49 45 90 81 93 79 2 -2 -41 -127 -96
-277 l-100 -274 86 -93 c47 -52 92 -92 98 -89 16 6 749 636 753 647 2 5 -31
46 -74 91 -43 46 -83 89 -89 96 -9 10 -43 -15 -161 -117 -82 -71 -169 -149
-194 -175 -24 -25 -47 -46 -51 -46 -3 0 40 126 96 280 l103 279 -92 96 -91 95
-374 -323z"/>
<path d="M2133 10410 c-120 -149 -219 -274 -220 -278 -2 -6 167 -135 203 -155
6 -4 40 30 78 78 37 47 71 85 74 85 4 0 137 -97 297 -215 159 -118 294 -215
300 -215 9 1 146 169 153 189 2 5 -127 104 -285 222 -158 117 -292 216 -296
220 -5 4 23 46 63 94 39 48 68 91 63 95 -18 16 -203 150 -208 150 -2 0 -102
-122 -222 -270z"/>
<path d="M10998 9942 c-229 -147 -417 -271 -418 -275 0 -5 34 -58 76 -118 47
-69 80 -107 87 -103 9 6 833 531 844 539 7 4 -149 220 -160 222 -6 1 -200
-118 -429 -265z"/>
<path d="M1685 9768 c-33 -57 -61 -108 -63 -114 -3 -11 732 -724 746 -724 8 1
122 194 122 208 0 4 -20 25 -45 45 -25 21 -45 42 -45 47 0 5 27 54 60 109 l60
99 67 -19 c37 -10 67 -18 68 -16 45 69 124 211 120 215 -4 5 -1008 251 -1025
252 -3 0 -32 -46 -65 -102z m468 -219 c81 -23 147 -45 147 -50 0 -14 -65 -119
-73 -119 -7 0 -192 156 -247 208 -13 12 -13 13 5 9 11 -4 86 -25 168 -48z"/>
<path d="M11270 9564 c-245 -117 -449 -215 -454 -217 -6 -2 63 -143 153 -314
l163 -311 106 50 c59 28 108 51 110 53 1 1 -41 83 -93 183 -52 99 -95 185 -95
190 0 8 115 62 132 62 3 0 39 -62 78 -137 40 -76 76 -142 81 -147 7 -8 219 80
219 92 0 2 -34 68 -75 147 -41 78 -75 147 -75 152 0 13 113 64 122 55 6 -7 26
-44 132 -244 l56 -107 103 49 c56 27 103 55 104 62 3 16 -300 591 -313 594 -5
1 -209 -94 -454 -212z"/>
<path d="M1415 9318 c-2 -7 -20 -56 -40 -108 -19 -52 -35 -99 -35 -105 0 -5
123 -70 272 -142 150 -73 267 -133 261 -133 -7 0 -138 23 -292 50 -154 28
-286 50 -294 50 -8 0 -28 -38 -50 -97 -20 -54 -35 -98 -34 -99 1 0 125 -61
274 -134 150 -73 272 -135 270 -136 -2 -2 -137 21 -302 52 -164 30 -301 51
-305 47 -11 -13 -82 -214 -77 -219 4 -4 1005 -144 1028 -144 7 0 93 229 88
234 -2 2 -116 60 -254 129 -137 69 -244 126 -237 126 7 1 127 -19 268 -44 140
-25 263 -45 272 -45 13 0 28 28 59 113 22 61 38 115 34 118 -3 4 -184 105
-401 224 -217 119 -419 230 -448 247 -39 22 -53 26 -57 16z"/>
<path d="M11865 8887 c-107 -28 -177 -83 -216 -172 -20 -43 -23 -72 -27 -205
-2 -85 -9 -163 -14 -173 -14 -27 -53 -39 -83 -25 -14 6 -34 31 -46 55 -28 58
-21 108 21 146 l31 28 -41 124 -41 124 -30 -13 c-160 -67 -243 -247 -193 -417
43 -144 128 -250 231 -289 123 -46 301 -7 379 84 48 57 64 119 70 276 3 74 7
145 10 157 10 49 66 70 96 36 44 -50 42 -129 -4 -164 l-21 -16 38 -114 c21
-63 41 -118 46 -123 11 -12 93 38 141 86 57 57 81 118 82 203 0 153 -87 311
-207 371 -59 30 -152 39 -222 21z"/>
<path d="M1130 7407 l-66 -212 -59 -6 c-33 -4 -131 -7 -219 -8 l-158 -1 173
-126 c96 -70 175 -128 176 -129 1 0 -27 -94 -62 -207 -36 -114 -65 -212 -65
-218 0 -6 81 50 180 125 117 89 184 134 192 129 7 -5 88 -63 180 -131 93 -68
168 -120 168 -116 0 4 -29 95 -65 204 -36 108 -65 203 -65 211 0 7 64 62 143
120 78 59 156 119 172 133 l30 26 -220 -3 -220 -3 -70 212 c-38 117 -72 213
-75 213 -3 0 -34 -96 -70 -213z"/>
<path d="M12041 7493 c-21 -71 -52 -167 -66 -215 -25 -81 -30 -88 -54 -89 -14
-1 -111 -4 -214 -8 l-188 -6 171 -124 c93 -68 170 -129 170 -135 0 -6 -29
-103 -65 -216 -35 -112 -63 -205 -62 -206 1 -2 74 52 162 118 88 66 170 127
182 135 21 14 30 9 170 -94 81 -60 162 -119 180 -131 l32 -23 -14 48 c-8 26
-39 122 -70 213 -30 90 -55 165 -55 167 0 1 75 59 168 129 92 70 172 132 177
137 6 6 -69 7 -212 3 l-221 -6 -72 215 c-39 118 -73 215 -75 215 -2 0 -22 -57
-44 -127z"/>
<path d="M1170 6133 c-283 -46 -525 -86 -537 -88 -18 -4 -22 -11 -18 -33 2
-15 14 -88 26 -162 12 -74 32 -169 45 -211 81 -259 298 -378 619 -339 109 13
243 49 307 81 62 32 135 105 165 168 25 50 28 67 28 156 -1 89 -7 122 -54 300
-30 110 -57 203 -60 206 -3 3 -238 -32 -521 -78z m349 -305 c32 -136 -22 -196
-209 -234 -164 -33 -293 -6 -344 74 -24 36 -53 119 -45 126 6 5 552 94 569 92
10 -1 20 -22 29 -58z"/>
<path d="M11546 5993 c-10 -34 -146 -653 -146 -666 0 -17 1095 -156 1109 -141
15 16 170 699 160 705 -11 7 -249 33 -254 27 -2 -2 -25 -95 -50 -208 -26 -113
-50 -208 -54 -211 -3 -4 -41 -2 -83 3 -62 8 -78 14 -78 27 0 9 16 83 35 165
19 82 35 154 35 161 0 7 -45 17 -127 27 -71 8 -130 13 -132 12 -2 -2 -21 -79
-43 -171 -21 -91 -40 -168 -42 -170 -2 -3 -36 -1 -75 3 -58 5 -71 10 -71 24 0
10 20 103 44 209 l43 191 -31 5 c-63 10 -188 25 -211 25 -14 0 -26 -7 -29 -17z"/>
<path d="M1376 5204 c-279 -84 -510 -155 -512 -156 -3 -4 264 -679 272 -687 5
-5 225 59 237 69 4 4 -28 98 -72 210 -44 112 -79 206 -77 207 2 2 38 14 79 27
l76 24 67 -169 c36 -93 69 -169 73 -169 11 0 233 68 237 73 3 2 -22 74 -55
158 -33 85 -61 160 -63 168 -3 14 103 54 131 48 7 -1 46 -86 86 -190 41 -104
76 -191 79 -194 6 -6 215 54 237 67 7 5 -33 121 -117 339 -112 287 -131 331
-149 330 -11 -1 -249 -70 -529 -155z"/>
<path d="M11520 5157 c-152 -43 -256 -146 -310 -307 -80 -237 92 -470 415
-562 66 -19 105 -23 220 -23 123 0 148 3 205 24 136 50 232 141 287 271 23 55
27 80 28 160 0 90 -2 99 -34 158 -20 36 -57 83 -85 108 -56 49 -185 119 -197
107 -8 -9 -101 -255 -96 -258 1 -1 24 -14 50 -29 52 -30 87 -76 87 -116 0 -33
-38 -98 -73 -124 -82 -61 -379 -4 -489 93 -67 59 -71 136 -10 194 36 34 72 47
137 47 41 0 54 4 60 18 36 91 84 236 79 241 -12 12 -229 10 -274 -2z"/>
<path d="M1720 4404 c-267 -129 -486 -238 -488 -243 -2 -5 45 -96 104 -202
128 -228 195 -309 296 -354 140 -63 317 -45 513 53 210 104 315 236 315 395 0
111 -31 184 -207 499 l-49 87 -484 -235z m423 -191 c13 -27 27 -61 31 -76 20
-84 -36 -153 -182 -224 -82 -40 -106 -47 -171 -50 -96 -5 -131 12 -185 91 -21
31 -36 59 -34 61 10 10 494 244 505 244 7 1 23 -20 36 -46z"/>
<path d="M10997 4274 l-66 -132 107 -45 c510 -213 879 -366 890 -369 8 -2 37
46 76 128 l64 132 -503 209 -502 209 -66 -132z"/>
<path d="M10857 3985 c-43 -63 -77 -119 -77 -124 0 -5 113 -118 250 -252 138
-133 249 -244 247 -246 -3 -2 -392 133 -638 222 l-37 13 -76 -114 c-42 -62
-77 -119 -78 -125 -2 -6 24 -19 57 -29 376 -111 1009 -290 1016 -288 5 2 45
57 88 122 l80 119 -187 206 c-388 428 -556 611 -562 611 -4 0 -41 -52 -83
-115z"/>
<path d="M2205 3570 c-242 -165 -440 -306 -439 -313 2 -18 153 -227 165 -227
6 0 208 135 450 301 l439 301 -22 31 c-40 58 -150 207 -152 207 -1 0 -199
-135 -441 -300z"/>
<path d="M2735 3406 c-132 -38 -225 -97 -341 -218 -223 -233 -242 -490 -52
-694 147 -156 338 -176 538 -56 35 22 65 43 67 48 1 5 -39 53 -90 108 l-92 99
-52 -27 c-88 -44 -160 -30 -203 38 -47 77 -18 168 89 276 155 157 286 199 360
115 52 -59 53 -120 5 -190 l-25 -38 23 -26 c44 -51 163 -171 169 -171 3 0 25
27 48 60 138 197 128 385 -29 553 -87 93 -159 128 -277 133 -57 3 -106 -1
-138 -10z"/>
<path d="M10404 3262 c-75 -26 -130 -72 -329 -271 l-180 -181 383 -383 384
-382 99 105 99 105 -130 130 -129 130 27 32 c46 55 102 93 136 93 40 0 60 -14
170 -117 49 -46 94 -83 100 -83 6 0 57 46 114 103 80 81 100 105 90 115 -7 7
-20 12 -30 12 -10 0 -62 42 -116 93 -143 137 -189 159 -273 134 l-47 -14 10
35 c22 78 -20 178 -107 261 -94 89 -179 115 -271 83z m120 -317 c61 -57 53
-104 -35 -199 l-54 -57 -75 76 -75 76 66 64 c59 58 71 65 106 65 29 0 48 -7
67 -25z"/>
<path d="M3229 2469 c-222 -188 -414 -351 -427 -364 l-23 -22 106 -77 c59 -43
112 -79 119 -82 6 -2 33 18 60 45 l49 49 111 -80 c61 -44 112 -82 114 -83 1
-1 -9 -33 -23 -71 -25 -65 -25 -69 -8 -82 99 -73 214 -154 217 -151 1 2 78
243 171 534 92 292 170 535 172 542 4 11 -26 35 -168 136 l-67 47 -403 -341z
m264 -211 c-35 -95 -65 -174 -68 -176 -3 -3 -103 66 -130 90 -5 5 42 57 120
133 72 68 133 124 136 124 4 1 -22 -76 -58 -171z"/>
<path d="M9583 2607 c-161 -105 -292 -197 -290 -203 4 -20 552 -924 560 -924
14 0 597 393 597 403 0 8 -81 149 -115 199 -10 15 -31 4 -191 -102 -98 -66
-181 -120 -184 -120 -3 0 -23 31 -46 68 l-41 68 149 99 c82 54 147 101 146
105 -13 30 -125 210 -131 210 -4 0 -73 -43 -153 -95 -81 -53 -147 -95 -148
-93 -1 2 -9 14 -17 28 -8 14 -25 41 -37 61 l-22 37 175 113 c96 63 175 118
175 123 0 10 -123 215 -130 215 -3 0 -137 -86 -297 -192z"/>
<path d="M3927 2410 l-55 -131 113 -57 113 -57 -159 -365 c-87 -201 -158 -368
-158 -373 -1 -9 246 -133 252 -127 2 3 65 147 140 320 75 173 146 339 159 368
l24 53 112 -56 113 -55 30 68 c55 122 78 177 81 189 3 11 -677 353 -700 353
-5 0 -34 -59 -65 -130z"/>
<path d="M8960 2296 c-121 -35 -229 -118 -277 -211 -55 -105 -36 -271 42 -380
75 -107 147 -131 356 -121 181 9 209 0 209 -70 0 -36 -28 -66 -84 -89 -48 -20
-86 -12 -124 26 l-30 30 -113 -47 c-63 -26 -118 -50 -122 -54 -14 -12 28 -83
78 -134 146 -150 376 -134 551 39 84 83 108 146 101 270 -7 157 -70 267 -179
316 -50 23 -62 24 -235 21 l-181 -2 -21 26 c-29 36 -26 58 9 88 55 46 118 44
160 -5 14 -17 21 -15 137 33 l122 51 -20 40 c-72 139 -236 215 -379 173z"/>
<path d="M4591 1655 c-73 -295 -131 -538 -128 -541 13 -13 661 -204 668 -197
7 9 59 215 59 236 0 9 -68 33 -197 72 -109 32 -199 59 -201 61 -4 2 35 154 40
159 2 2 77 -18 167 -44 108 -33 164 -45 166 -37 22 66 61 242 55 246 -5 3 -79
25 -165 50 l-157 45 6 35 c3 19 11 53 18 76 l13 41 195 -58 c107 -32 195 -57
197 -56 6 7 66 248 62 252 -6 5 -643 195 -656 195 -4 0 -68 -241 -142 -535z"/>
<path d="M5446 1958 c-3 -13 -30 -246 -61 -518 -30 -272 -58 -511 -61 -532 -7
-44 -21 -39 216 -74 281 -40 366 -26 475 76 94 90 154 248 174 462 9 93 1 211
-17 273 -18 59 -61 131 -104 172 -76 74 -149 100 -374 133 -243 36 -242 36
-248 8z m382 -310 c75 -35 99 -117 81 -274 -24 -217 -99 -310 -233 -290 -25 4
-46 13 -46 19 -1 7 14 139 32 295 l32 283 46 -7 c25 -3 64 -15 88 -26z"/>
<path d="M7761 1965 c-223 -49 -355 -270 -338 -565 17 -282 129 -498 300 -576
54 -25 74 -28 152 -28 118 0 184 26 265 101 70 64 109 129 142 233 32 103 32
314 -1 435 -59 220 -180 364 -340 401 -69 17 -98 16 -180 -1z m146 -290 c36
-24 70 -76 93 -145 31 -90 39 -264 16 -342 -28 -97 -107 -140 -183 -101 -132
68 -182 488 -69 582 38 32 99 34 143 6z"/>
<path d="M6876 1868 c-159 -4 -291 -10 -294 -13 -2 -2 -1 -70 3 -151 l8 -147
117 5 c114 5 119 4 124 -16 3 -12 6 -100 6 -196 0 -96 3 -273 7 -393 l6 -217
133 0 c73 0 135 3 137 8 2 4 1 189 -3 412 -4 223 -6 407 -4 409 2 2 58 6 124
9 l120 5 0 148 0 149 -97 -2 c-54 0 -228 -5 -387 -10z"/>
</g>
</svg>
