<?xml version="1.0" standalone="no"?>
<!DOCTYPE svg PUBLIC "-//W3C//DTD SVG 20010904//EN"
 "http://www.w3.org/TR/2001/REC-SVG-20010904/DTD/svg10.dtd">
<svg version="1.0" xmlns="http://www.w3.org/2000/svg"
 width="949.000000pt" height="949.000000pt" viewBox="0 0 949.000000 949.000000"
 preserveAspectRatio="xMidYMid meet">
<metadata>
Created by potrace 1.11, written by Peter Selinger 2001-2013
</metadata>
<g transform="translate(0.000000,949.000000) scale(0.100000,-0.100000)"
fill="#000000" stroke="none">
<path d="M5110 9254 c0 -5 13 -15 28 -22 28 -12 157 -88 177 -103 5 -5 42 -30
80 -55 39 -26 86 -60 105 -76 19 -16 40 -32 45 -36 88 -62 303 -265 395 -372
25 -29 57 -67 73 -84 56 -64 187 -242 187 -255 0 -5 3 -11 8 -13 13 -6 177
-268 167 -268 -3 0 5 -17 18 -37 45 -71 217 -463 217 -494 0 -4 5 -20 12 -36
6 -15 12 -30 13 -33 0 -3 13 -44 28 -92 16 -48 30 -97 32 -109 3 -12 9 -36 14
-53 6 -17 13 -42 16 -56 9 -44 33 -154 38 -175 3 -11 12 -67 22 -125 9 -58 20
-110 24 -117 3 -6 27 -34 54 -61 26 -28 47 -54 47 -59 0 -5 8 -16 18 -25 20
-20 29 -30 62 -80 14 -21 29 -38 33 -38 5 0 5 -4 2 -10 -3 -5 -2 -10 4 -10 5
0 12 -8 15 -17 3 -10 18 -31 33 -48 27 -29 133 -191 133 -202 0 -3 10 -20 23
-37 13 -17 27 -38 30 -46 4 -8 17 -31 28 -50 12 -19 33 -57 47 -85 15 -27 32
-56 39 -63 7 -7 13 -22 13 -32 0 -10 4 -20 9 -22 15 -5 186 -388 173 -388 -4
0 -1 -4 7 -9 8 -5 15 -17 16 -28 1 -10 6 -27 10 -38 51 -132 55 -144 70 -205
1 -3 4 -12 7 -20 11 -28 32 -115 28 -115 -2 0 2 -9 8 -21 6 -11 13 -32 16 -46
2 -14 14 -61 27 -104 12 -43 23 -89 24 -101 2 -11 6 -29 9 -40 6 -20 7 -26 35
-202 11 -68 20 -127 19 -130 0 -3 1 -8 2 -11 1 -3 3 -21 5 -40 2 -19 6 -60 9
-90 9 -98 18 -263 18 -345 0 -93 -12 -386 -17 -430 -2 -16 -7 -55 -10 -85 -3
-30 -8 -64 -12 -75 -3 -11 -7 -31 -9 -45 -7 -73 -20 -165 -24 -165 -2 0 -9
-36 -16 -85 -3 -25 -11 -68 -19 -97 -7 -28 -10 -54 -7 -57 3 -3 -1 -6 -8 -6
-7 0 -11 -3 -8 -6 3 -3 -1 -29 -9 -57 -8 -29 -16 -59 -17 -67 -2 -8 -6 -22 -9
-30 -23 -63 -60 -178 -61 -192 -1 -9 -8 -23 -15 -32 -8 -9 -11 -16 -8 -16 11
0 -82 -230 -98 -242 -5 -4 -7 -8 -2 -8 4 0 0 -15 -10 -32 -9 -18 -17 -35 -18
-38 0 -3 -4 -11 -8 -18 -32 -50 144 27 313 138 169 110 227 157 365 297 266
267 458 591 590 993 34 105 79 280 91 355 3 22 7 42 9 45 6 9 35 228 43 315
12 132 7 611 -6 740 -19 171 -68 459 -104 600 -16 66 -31 127 -33 135 -28 121
-129 421 -209 618 -69 172 -184 410 -283 585 -21 38 -44 81 -52 95 -15 28 -40
69 -134 214 -32 48 -57 92 -57 98 0 5 -3 10 -7 10 -5 0 -19 17 -33 38 -20 30
-69 98 -112 157 -88 117 -249 312 -348 418 -36 39 -64 76 -64 83 1 8 -2 11 -7
8 -5 -3 -46 32 -92 78 -109 108 -263 249 -329 301 -29 23 -55 45 -58 48 -6 9
-201 155 -253 189 -20 14 -37 28 -37 33 0 4 -5 7 -11 7 -5 0 -36 17 -67 39
-204 138 -420 251 -737 386 -16 7 -59 22 -95 34 -36 12 -74 26 -85 31 -31 15
-321 91 -405 106 -113 21 -180 28 -180 18z"/>
<path d="M5155 9190 c3 -5 8 -10 11 -10 2 0 4 5 4 10 0 6 -5 10 -11 10 -5 0
-7 -4 -4 -10z"/>
<path d="M5935 9070 c-3 -5 -1 -10 4 -10 6 0 11 5 11 10 0 6 -2 10 -4 10 -3 0
-8 -4 -11 -10z"/>
<path d="M6115 8291 c-3 -5 -1 -12 5 -16 5 -3 10 1 10 9 0 18 -6 21 -15 7z"/>
<path d="M4307 8134 c-1 -1 -42 -4 -92 -7 -551 -37 -1175 -284 -1718 -681 -62
-45 -123 -91 -136 -101 -114 -95 -205 -172 -260 -223 -147 -135 -377 -376
-466 -490 -54 -68 -86 -108 -98 -122 -18 -22 -89 -115 -115 -152 -13 -18 -40
-56 -60 -85 -20 -28 -70 -104 -111 -167 -41 -64 -78 -116 -81 -116 -4 0 -7 -6
-7 -12 0 -7 -25 -57 -56 -111 -137 -236 -288 -555 -369 -782 -6 -16 -17 -43
-24 -60 -7 -16 -27 -75 -45 -130 -17 -55 -40 -125 -50 -155 -16 -49 -91 -338
-104 -400 -9 -43 -43 -223 -49 -262 -3 -21 -9 -55 -12 -75 -3 -21 -7 -49 -9
-63 -3 -14 -7 -56 -11 -95 -3 -38 -8 -81 -11 -95 -13 -62 -11 -659 2 -778 24
-220 76 -504 105 -582 5 -14 12 -36 14 -50 12 -61 34 -127 90 -270 l25 -65 1
60 c4 213 35 539 60 625 6 19 13 49 16 65 10 59 45 189 78 289 71 216 199 501
225 501 8 0 16 6 19 13 2 6 -1 12 -7 12 -6 0 8 36 31 80 25 46 48 78 55 76 8
-3 10 1 6 11 -4 10 -2 14 5 9 6 -3 14 -1 18 5 4 8 3 9 -4 5 -25 -15 0 40 45
99 5 6 22 30 38 55 42 63 156 215 200 266 11 13 38 45 60 71 96 115 384 392
502 481 69 53 84 76 115 170 15 47 32 90 37 95 6 6 11 17 11 23 0 7 18 52 40
99 22 47 40 90 40 96 0 5 4 9 9 9 5 0 11 13 14 29 3 16 13 36 22 45 9 9 14 16
11 16 -7 0 32 82 43 90 3 3 15 23 26 45 10 22 27 48 37 58 10 10 18 27 18 37
0 11 4 20 8 20 4 0 13 12 20 28 14 31 19 40 86 145 27 42 53 77 57 77 5 0 9 5
9 12 0 13 97 149 178 251 47 58 57 66 71 55 14 -11 14 -11 3 4 -11 14 -7 24
35 70 26 29 60 68 75 86 23 27 32 32 50 26 13 -5 28 -8 33 -9 18 0 10 -31 -17
-64 -15 -18 -32 -30 -37 -27 -10 7 -44 -28 -35 -36 10 -11 -17 -50 -31 -44 -8
3 -12 0 -9 -7 2 -7 -9 -28 -26 -47 -16 -19 -30 -38 -30 -42 0 -4 -9 -10 -20
-13 -11 -4 -18 -10 -15 -15 3 -5 -5 -19 -19 -31 -14 -12 -23 -25 -21 -29 2 -4
-7 -18 -20 -30 -14 -13 -25 -29 -25 -36 0 -7 -8 -19 -18 -26 -9 -7 -26 -30
-36 -50 -11 -20 -25 -34 -30 -31 -6 4 -8 3 -4 -2 4 -4 -6 -27 -22 -51 -17 -23
-30 -47 -30 -53 0 -6 -4 -11 -10 -11 -5 0 -10 -9 -10 -19 0 -11 -11 -28 -25
-39 -14 -11 -25 -25 -25 -31 0 -6 -7 -11 -15 -11 -17 0 -35 -38 -28 -57 4 -9
-38 -99 -72 -153 -5 -8 -10 -21 -12 -29 -1 -8 -7 -17 -13 -21 -7 -4 -11 -10
-11 -13 0 -4 -8 -27 -19 -53 -11 -25 -20 -50 -20 -55 0 -5 -4 -9 -10 -9 -5 0
-10 -8 -10 -18 0 -10 -5 -23 -12 -30 -7 -7 -9 -12 -6 -12 4 0 -6 -24 -21 -54
-33 -62 -50 -136 -31 -136 15 0 74 32 78 43 2 4 10 7 18 7 8 0 20 11 26 25 10
23 24 30 46 23 4 -2 6 -7 4 -11 -1 -5 2 -6 8 -2 5 3 10 14 10 23 1 17 50 52
130 92 25 12 54 30 65 40 11 9 33 20 48 24 16 4 38 16 50 26 11 11 27 20 35
20 8 0 27 9 43 21 16 11 29 17 29 12 0 -4 4 -3 8 2 9 13 79 45 97 45 8 0 15 4
15 10 0 8 100 60 116 60 3 0 42 16 86 35 44 20 85 34 91 33 7 -1 31 10 54 25
24 15 49 27 57 27 7 0 44 11 80 25 37 14 74 25 84 25 10 0 35 9 57 20 22 11
50 20 63 20 12 0 35 6 50 13 15 8 65 24 112 36 47 12 117 31 156 41 38 11 97
22 130 26 32 4 65 11 72 17 7 5 15 7 19 4 3 -4 13 -2 22 3 9 5 38 11 65 14 26
3 51 8 54 10 4 2 40 7 80 11 41 4 86 10 100 14 15 4 52 9 82 10 30 2 61 6 70
10 8 5 39 9 69 10 30 1 58 4 62 6 7 5 450 20 574 20 119 -1 437 -15 458 -21
10 -3 37 -7 60 -9 97 -9 330 -42 359 -51 9 -3 32 -6 50 -8 18 -2 44 -7 58 -10
14 -3 36 -8 50 -10 91 -16 236 -49 245 -55 5 -4 28 -9 50 -10 22 -2 43 -7 46
-13 13 -21 20 13 15 74 -8 95 -34 279 -44 313 -5 17 -9 46 -8 67 1 20 -2 34
-6 32 -4 -3 -10 8 -13 23 -3 15 -10 44 -15 64 -6 20 -10 46 -10 57 0 11 -3 22
-8 24 -4 2 -17 39 -29 83 -11 44 -35 118 -53 165 -18 47 -36 100 -40 119 -5
19 -12 37 -17 40 -14 10 -54 102 -48 111 3 5 -3 17 -14 27 -10 10 -31 45 -47
78 -16 33 -32 62 -35 65 -16 12 -69 113 -69 130 0 10 -9 22 -20 25 -11 3 -20
12 -20 19 0 7 -11 23 -25 36 -14 13 -25 30 -25 37 0 8 -7 16 -15 20 -9 3 -22
18 -30 33 -8 15 -29 42 -47 61 -18 19 -71 75 -117 124 -46 50 -93 95 -104 101
-12 7 -64 9 -146 6 -69 -3 -141 -5 -158 -6 -18 -1 -33 -4 -33 -7 0 -3 -19 -6
-42 -8 -57 -2 -94 -8 -147 -20 -25 -5 -49 -7 -53 -5 -5 3 -15 1 -22 -5 -7 -6
-30 -13 -52 -16 -21 -2 -52 -8 -69 -11 -16 -4 -37 -8 -45 -9 -16 -2 -82 -19
-136 -36 -17 -5 -40 -9 -51 -9 -12 0 -23 -7 -27 -15 -3 -10 -19 -15 -44 -15
-21 0 -42 -4 -47 -9 -6 -5 -35 -16 -65 -26 -30 -10 -59 -20 -65 -24 -5 -3 -12
-6 -15 -6 -18 -2 -100 -30 -100 -35 0 -3 -12 -7 -27 -8 -15 -1 -29 -6 -33 -11
-8 -15 -101 -52 -111 -45 -5 3 -9 1 -9 -4 0 -5 -13 -15 -30 -22 -16 -7 -30
-15 -30 -19 0 -3 -19 -12 -42 -19 -23 -7 -53 -22 -68 -32 -14 -10 -38 -22 -53
-25 -14 -4 -31 -13 -38 -21 -6 -8 -17 -14 -24 -14 -7 0 -24 -9 -38 -20 -30
-24 -57 -26 -58 -5 -1 8 -2 21 -3 28 -1 6 -10 11 -20 9 -34 -6 -10 20 49 55
33 18 102 54 153 79 l93 46 18 -21 c15 -17 20 -18 24 -7 3 8 3 22 1 33 -4 13
3 21 23 30 15 6 61 25 102 42 40 17 79 31 87 31 8 0 14 5 14 10 0 6 10 10 23
10 12 0 39 9 60 20 20 11 37 17 37 14 0 -4 7 -1 15 6 8 7 15 10 15 6 0 -4 13
0 30 9 37 19 41 20 51 4 4 -7 19 -13 33 -14 29 -1 35 10 11 19 -29 11 -15 25
43 41 31 10 64 19 72 20 8 2 30 8 48 14 17 5 32 8 32 5 0 -3 8 0 19 5 10 6 31
13 47 15 16 3 44 10 63 16 19 5 37 8 39 5 3 -3 11 0 19 6 7 6 13 9 13 6 0 -3
17 -1 38 4 46 12 67 16 117 24 119 19 180 27 204 26 12 0 28 2 33 5 6 4 30 8
55 9 24 1 48 6 53 11 6 6 -23 32 -73 65 -303 207 -662 332 -1044 365 -75 6
-311 12 -316 8z"/>
<path d="M3290 7960 c0 -5 5 -10 10 -10 6 0 10 5 10 10 0 6 -4 10 -10 10 -5 0
-10 -4 -10 -10z"/>
<path d="M5710 7800 c0 -5 9 -10 20 -10 11 0 20 5 20 10 0 6 -9 10 -20 10 -11
0 -20 -4 -20 -10z"/>
<path d="M2495 7520 c-3 -5 -1 -10 4 -10 6 0 11 5 11 10 0 6 -2 10 -4 10 -3 0
-8 -4 -11 -10z"/>
<path d="M6835 6280 c2 -78 6 -144 8 -148 5 -10 0 -300 -7 -402 -7 -92 -10
-126 -20 -240 -13 -131 -15 -155 -20 -175 -2 -11 -7 -42 -10 -69 -4 -27 -11
-56 -16 -65 -4 -9 -9 -41 -11 -71 -1 -30 -8 -75 -15 -100 -17 -66 -46 -190
-48 -214 -2 -12 -7 -32 -11 -46 -5 -14 -9 -29 -10 -35 0 -5 -7 -30 -15 -55 -7
-25 -14 -49 -16 -55 -1 -5 -14 -45 -28 -88 -14 -43 -26 -86 -26 -96 0 -10 -9
-30 -20 -43 -10 -14 -17 -28 -13 -31 3 -4 1 -12 -4 -19 -10 -13 -28 -86 -25
-100 1 -5 -2 -8 -8 -8 -5 0 -10 -8 -10 -18 0 -10 -3 -22 -7 -25 -10 -11 -42
-107 -35 -107 3 0 -3 -6 -13 -14 -10 -7 -20 -25 -22 -39 -2 -15 -17 -56 -33
-92 -16 -36 -26 -65 -22 -65 4 0 2 -4 -4 -8 -6 -4 -23 -34 -38 -67 -15 -33
-37 -81 -49 -107 -12 -27 -25 -48 -29 -48 -5 0 -8 -7 -8 -16 0 -8 -12 -36 -27
-62 -14 -26 -41 -74 -58 -107 -31 -60 -62 -114 -96 -170 -11 -16 -22 -37 -26
-45 -4 -8 -11 -19 -15 -25 -22 -28 -78 -116 -78 -123 0 -5 -16 -27 -35 -49
-19 -23 -35 -45 -35 -49 0 -4 -11 -22 -25 -39 -13 -18 -22 -35 -20 -37 3 -2
-11 -20 -30 -38 -19 -19 -35 -40 -35 -47 0 -8 -7 -16 -15 -19 -8 -4 -12 -10
-9 -15 3 -5 -2 -12 -10 -15 -9 -3 -16 -12 -16 -18 0 -7 -18 -32 -40 -56 -22
-23 -42 -51 -45 -61 -4 -11 -13 -19 -21 -19 -8 0 -14 -6 -14 -12 0 -7 -20 -35
-45 -61 -24 -27 -47 -57 -50 -68 -4 -10 -13 -19 -21 -19 -8 0 -14 -6 -14 -13
0 -7 -8 -20 -17 -29 -10 -8 -45 -46 -78 -83 -104 -116 -116 -127 -129 -122
-10 4 -12 -1 -9 -14 3 -10 1 -19 -5 -19 -5 0 -12 -7 -16 -15 -4 -10 10 -22 48
-40 29 -14 56 -28 60 -32 3 -4 12 -8 19 -9 22 -4 132 -46 141 -55 6 -5 18 -9
28 -9 10 0 29 -6 41 -14 12 -8 31 -16 42 -18 11 -2 22 -6 25 -10 3 -4 21 -9
39 -10 18 -1 35 -8 38 -15 3 -6 11 -9 19 -6 13 5 139 -28 179 -48 19 -9 60
-15 113 -18 13 0 21 -5 18 -9 -2 -4 11 -6 29 -4 18 2 50 -2 71 -8 21 -7 56
-14 78 -15 23 -1 59 -6 80 -10 55 -11 450 -13 511 -2 28 4 77 10 110 12 33 3
69 7 80 9 11 3 61 15 110 26 110 26 97 23 172 44 57 17 63 22 85 65 13 25 26
48 29 51 9 8 35 61 55 110 10 25 26 64 36 87 10 23 18 47 18 52 0 6 5 11 10
11 6 0 10 7 10 15 0 8 9 34 19 58 10 23 21 51 24 62 3 11 15 47 27 80 13 33
23 67 24 75 2 8 5 22 8 30 21 56 64 236 57 242 -1 2 3 13 10 26 6 12 14 41 16
65 3 23 9 65 15 92 6 28 11 57 12 65 0 8 5 35 10 60 14 67 19 100 23 150 1 25
4 45 5 45 7 0 23 310 24 445 0 101 -11 342 -19 405 -2 17 -6 55 -10 85 -3 30
-13 93 -21 140 -8 47 -20 119 -25 160 -6 41 -13 82 -16 90 -8 21 -9 23 -37
132 -13 53 -29 106 -36 117 -6 12 -9 21 -6 21 5 0 -57 195 -87 275 -7 17 -11
33 -9 38 1 4 -3 7 -9 7 -5 0 -8 4 -5 8 3 5 -1 20 -9 35 -8 15 -12 27 -9 27 2
0 -2 10 -9 23 -8 12 -23 46 -33 75 -10 28 -22 52 -26 52 -4 0 -8 6 -8 13 0 7
-9 33 -21 58 -63 133 -84 174 -90 179 -3 3 -9 15 -13 27 -4 13 -13 29 -21 36
-7 7 -24 36 -39 65 -14 28 -30 53 -36 57 -6 4 -8 11 -5 16 4 5 1 9 -4 9 -6 0
-11 9 -11 21 0 12 -10 29 -22 39 -13 10 -32 35 -43 56 -19 38 -63 100 -97 138
-10 11 -18 25 -18 32 0 6 -7 14 -15 17 -12 5 -28 30 -70 108 -5 10 -18 20 -28
23 -11 2 -16 9 -12 15 3 7 -2 11 -14 11 -21 0 -21 -4 -16 -140z"/>
<path d="M1376 6394 c-8 -21 -8 -21 7 -27 10 -4 13 2 9 19 -5 28 -8 30 -16 8z"/>
<path d="M2895 6150 c-3 -5 -1 -10 4 -10 6 0 11 5 11 10 0 6 -2 10 -4 10 -3 0
-8 -4 -11 -10z"/>
<path d="M1190 6071 c0 -25 6 -27 13 -6 4 8 2 17 -3 20 -6 4 -10 -3 -10 -14z"/>
<path d="M2415 5480 c3 -5 8 -10 11 -10 2 0 4 5 4 10 0 6 -5 10 -11 10 -5 0
-7 -4 -4 -10z"/>
<path d="M2385 5409 c-4 -6 -5 -12 -2 -15 2 -3 7 2 10 11 7 17 1 20 -8 4z"/>
<path d="M2818 5193 c-21 -14 -38 -30 -38 -34 0 -5 -7 -9 -15 -9 -8 0 -15 -4
-15 -10 0 -5 -6 -10 -12 -10 -7 0 -36 -22 -65 -49 -28 -27 -53 -47 -55 -45 -6
5 -318 -304 -318 -314 0 -5 -11 -15 -25 -22 -14 -7 -25 -19 -25 -25 0 -6 -12
-23 -27 -38 -39 -36 -49 -50 -57 -75 -4 -12 -12 -22 -17 -22 -5 0 -9 -5 -9
-10 0 -6 -18 -28 -40 -50 -21 -21 -42 -50 -46 -65 -4 -14 -15 -32 -25 -38 -11
-7 -19 -19 -19 -28 0 -9 -13 -35 -30 -57 -16 -23 -30 -49 -30 -57 0 -8 -4 -15
-9 -15 -5 0 -37 -56 -71 -125 -34 -69 -66 -125 -71 -125 -4 0 -6 -6 -4 -13 3
-7 -13 -62 -35 -122 -23 -61 -43 -121 -46 -133 -3 -13 -12 -49 -20 -80 -36
-136 -37 -169 -1 -215 14 -19 28 -41 29 -48 2 -8 17 -29 33 -46 38 -41 43 -48
80 -103 17 -24 37 -52 45 -61 8 -9 40 -45 70 -79 30 -34 72 -80 93 -102 20
-22 37 -44 37 -49 0 -5 3 -9 8 -9 13 0 72 -57 65 -64 -3 -3 -1 -6 5 -6 6 0 36
-24 66 -52 142 -137 172 -163 191 -168 11 -3 24 -16 30 -28 5 -12 21 -26 35
-31 14 -4 47 -29 73 -54 26 -26 51 -47 55 -48 12 -3 55 -33 81 -56 13 -13 30
-23 37 -23 8 0 14 -4 14 -9 0 -5 16 -16 36 -26 19 -9 38 -23 41 -31 3 -8 11
-14 19 -14 19 0 84 -46 76 -54 -3 -4 1 -4 9 -1 9 3 27 -5 42 -19 15 -14 27
-23 27 -20 0 8 61 -28 88 -50 12 -11 22 -16 22 -12 0 4 14 -1 30 -11 31 -18
39 -38 18 -46 -10 -4 -9 -8 2 -16 11 -7 17 -6 23 4 10 19 37 19 65 -1 12 -8
22 -12 22 -8 0 4 11 -3 24 -15 13 -12 41 -24 62 -27 21 -3 41 -8 44 -13 3 -4
23 -14 45 -22 22 -8 54 -22 70 -31 17 -10 37 -18 46 -18 15 0 57 -16 144 -55
17 -7 42 -17 58 -20 15 -4 30 -11 33 -16 3 -5 9 -7 14 -4 4 2 38 -6 74 -19 74
-27 70 -26 92 -26 8 0 13 -4 10 -9 -4 -5 3 -7 14 -4 11 3 32 0 48 -6 15 -6 42
-13 61 -16 19 -3 37 -8 40 -10 4 -2 25 -6 47 -9 23 -4 54 -10 70 -14 16 -5 36
-8 44 -7 8 0 17 -3 21 -7 3 -4 47 -10 98 -13 51 -2 97 -8 104 -12 6 -4 29 -8
52 -10 22 -1 58 -5 80 -9 64 -9 729 -13 776 -4 24 5 73 11 109 14 36 3 74 9
85 13 11 3 31 7 45 8 22 1 78 10 135 20 11 2 23 4 27 4 22 3 -10 32 -55 51
-29 11 -61 25 -72 30 -11 4 -28 11 -37 14 -10 3 -18 15 -18 26 0 16 -7 20 -32
20 -18 0 -44 7 -58 15 -14 8 -32 17 -40 21 -8 4 -23 14 -32 22 -10 8 -18 12
-18 9 0 -3 -34 14 -75 38 -42 25 -80 45 -85 45 -6 0 -10 5 -10 11 0 5 -4 8 -9
5 -5 -3 -26 9 -47 28 -21 19 -41 33 -45 30 -4 -2 -18 6 -31 19 -13 12 -33 24
-43 25 -11 2 -26 12 -35 21 -8 10 -34 28 -57 41 -39 21 -47 31 -45 51 1 4 -7
5 -16 2 -17 -4 -41 12 -104 70 -16 15 -34 27 -39 27 -5 0 -9 7 -9 16 0 8 -4
13 -9 10 -5 -4 -23 5 -39 19 -16 14 -34 25 -39 25 -4 0 -14 9 -21 20 -7 11
-16 20 -21 20 -5 0 -30 19 -55 43 -25 23 -65 58 -87 77 -23 19 -73 65 -110
103 -38 37 -73 67 -79 67 -5 0 -10 7 -10 15 0 8 -4 15 -9 15 -10 0 -151 139
-151 149 0 3 -9 12 -20 19 -11 7 -20 16 -20 22 0 5 -29 38 -65 74 -36 35 -65
68 -65 73 0 4 -23 31 -50 60 -28 29 -50 55 -50 59 0 3 -12 18 -27 33 -16 15
-37 40 -48 56 -11 15 -32 44 -47 63 -16 19 -28 39 -28 44 0 5 -11 21 -25 36
-44 48 -71 86 -95 135 -13 26 -27 47 -32 47 -4 0 -8 5 -8 11 0 6 -15 26 -32
45 -18 19 -33 38 -33 42 -1 4 -13 26 -28 49 -15 24 -27 47 -27 53 0 5 -4 10
-9 10 -5 0 -20 21 -32 48 -13 26 -31 55 -40 65 -10 11 -20 31 -24 45 -4 15
-12 30 -18 34 -7 4 -12 11 -13 15 -1 13 -28 66 -47 95 -10 15 -20 33 -21 40
-7 32 -26 66 -40 71 -9 4 -16 13 -16 21 0 8 -22 62 -50 120 -27 58 -50 110
-50 116 0 5 -4 10 -10 10 -5 0 -10 7 -10 15 0 9 -9 34 -20 55 -11 22 -21 51
-22 65 -1 13 -8 27 -14 29 -7 3 -15 19 -19 37 -4 19 -11 40 -15 49 -33 71 -41
92 -51 140 -6 30 -20 66 -31 80 -23 31 -49 138 -41 168 4 16 1 22 -11 22 -9 0
-16 5 -16 10 0 15 -11 11 -52 -17z"/>
<path d="M550 4684 c0 -8 5 -12 10 -9 6 4 8 11 5 16 -9 14 -15 11 -15 -7z"/>
<path d="M1876 4593 c-11 -11 -6 -23 9 -23 8 0 15 4 15 9 0 13 -16 22 -24 14z"/>
<path d="M1570 4291 c0 -5 5 -13 10 -16 6 -3 10 -2 10 4 0 5 -4 13 -10 16 -5
3 -10 2 -10 -4z"/>
<path d="M417 4044 c3 -7 9 -14 14 -14 14 0 10 17 -5 23 -10 4 -13 1 -9 -9z"/>
<path d="M390 3869 c0 -11 4 -18 10 -14 5 3 7 12 3 20 -7 21 -13 19 -13 -6z"/>
<path d="M930 3293 c0 -4 5 -15 10 -23 8 -13 10 -13 10 2 0 9 -4 20 -10 23 -5
3 -10 3 -10 -2z"/>
<path d="M1635 3271 c-3 -5 -3 -108 -1 -228 7 -352 61 -588 207 -903 50 -106
189 -340 243 -407 8 -10 45 -56 82 -103 99 -124 355 -377 469 -463 5 -4 36
-28 69 -52 148 -113 369 -249 574 -353 134 -68 404 -183 497 -211 22 -7 49
-16 60 -21 62 -27 336 -101 570 -154 96 -21 288 -52 415 -66 58 -6 116 -13
130 -16 119 -18 648 -26 885 -12 412 24 885 113 1286 243 139 45 288 98 324
115 11 5 54 23 95 40 117 49 137 58 275 128 176 88 402 219 452 262 7 5 15 10
18 10 3 0 11 5 18 10 7 6 59 44 117 86 58 41 122 91 143 109 20 18 37 32 37
29 0 -2 8 4 18 14 75 70 216 198 222 200 4 2 14 -4 22 -12 16 -15 31 -10 36
14 2 8 8 17 13 18 15 6 10 22 -6 22 -20 0 -19 12 3 32 9 9 23 25 31 35 8 10
33 38 55 63 91 102 146 173 146 190 0 12 2 13 -96 -48 -155 -98 -449 -230
-649 -292 -55 -17 -113 -35 -130 -40 -16 -5 -41 -11 -55 -14 -14 -2 -65 -13
-115 -24 -49 -11 -108 -23 -130 -26 -22 -4 -67 -11 -100 -16 -250 -38 -683
-34 -966 10 -35 5 -82 12 -104 15 -22 3 -107 21 -190 40 -82 19 -161 37 -174
40 -14 4 -28 8 -33 11 -5 3 -19 7 -33 10 -14 2 -93 27 -176 55 -157 52 -159
52 -269 29 -30 -6 -70 -13 -87 -16 -18 -2 -48 -6 -65 -9 -129 -17 -185 -24
-259 -30 -79 -7 -228 -16 -249 -16 -8 0 -35 0 -60 0 -204 -3 -399 4 -499 17
-24 3 -65 8 -90 10 -124 11 -223 31 -233 47 -5 8 -10 9 -18 1 -8 -8 -35 -6
-98 8 -48 11 -105 23 -127 28 -47 9 -237 57 -280 70 -137 42 -196 63 -201 71
-3 5 -10 7 -15 4 -5 -3 -30 3 -55 14 -26 12 -54 21 -63 21 -9 0 -21 4 -27 8
-5 5 -25 15 -44 22 -19 7 -75 32 -125 55 -49 24 -117 54 -150 68 -93 39 -348
182 -353 198 -2 5 -8 9 -14 9 -10 0 -198 121 -220 143 -7 7 -26 21 -43 31 -25
16 -90 67 -141 111 -7 6 -27 21 -45 35 -18 14 -45 37 -60 53 -15 15 -31 27
-36 27 -5 0 -46 36 -91 80 -44 44 -85 80 -91 80 -6 0 -11 4 -11 9 0 4 -21 30
-47 58 -27 27 -58 60 -70 73 -12 14 -28 30 -35 37 -7 6 -31 33 -53 58 -22 26
-46 53 -52 60 -7 8 -13 18 -13 24 0 5 -10 18 -22 28 -13 10 -29 30 -37 46 -8
15 -20 27 -28 27 -7 0 -13 7 -13 15 0 8 4 15 9 15 5 0 11 11 13 24 4 17 1 23
-9 19 -7 -3 -13 -9 -13 -14 0 -14 -17 -11 -34 6 -17 17 -23 18 -31 6z"/>
<path d="M7750 2955 c0 -14 2 -25 4 -25 2 0 6 11 8 25 3 14 1 25 -3 25 -5 0
-9 -11 -9 -25z"/>
<path d="M352 2900 c0 -19 2 -27 5 -17 2 9 2 25 0 35 -3 9 -5 1 -5 -18z"/>
<path d="M396 2765 c-3 -8 -1 -15 4 -15 6 0 10 7 10 15 0 8 -2 15 -4 15 -2 0
-6 -7 -10 -15z"/>
<path d="M2200 2725 c-10 -12 -10 -15 4 -15 9 0 16 7 16 15 0 8 -2 15 -4 15
-2 0 -9 -7 -16 -15z"/>
<path d="M1714 2319 c0 -13 3 -15 13 -7 7 6 13 12 13 13 0 2 -6 5 -13 8 -7 3
-13 -3 -13 -14z"/>
<path d="M2010 1740 c0 -5 5 -10 10 -10 6 0 10 5 10 10 0 6 -4 10 -10 10 -5 0
-10 -4 -10 -10z"/>
<path d="M9041 1726 c-9 -11 -8 -15 5 -20 22 -8 23 -8 20 9 -3 23 -12 27 -25
11z"/>
<path d="M8751 1404 c0 -11 3 -14 6 -6 3 7 2 16 -1 19 -3 4 -6 -2 -5 -13z"/>
<path d="M8490 1190 c0 -5 5 -10 11 -10 5 0 7 5 4 10 -3 6 -8 10 -11 10 -2 0
-4 -4 -4 -10z"/>
<path d="M8330 1070 c0 -5 5 -10 11 -10 5 0 7 5 4 10 -3 6 -8 10 -11 10 -2 0
-4 -4 -4 -10z"/>
</g>
</svg>
