<svg version="1" xmlns="http://www.w3.org/2000/svg" width="933.333" height="933.333" viewBox="0 0 700.000000 700.000000"><path d="M345.2 73c-10.3 2.3-18 6.2-25 12.6-3.9 3.6-8 6.6-8.9 6.6-1.7.1-11.9-1.1-15.4-1.7-.9-.2-4-.6-6.9-1-2.9-.4-6.2-.9-7.4-1.1-1.1-.2-3.7-.6-5.8-.9-2.1-.3-5.7-.8-8-1.1-4.9-.7-6.2-.9-13.7-1.9-3-.4-6.1-.8-7-1-2.3-.4-9-1.4-14.1-2-4.3-.6-6.4-.9-14-2.1-7.1-1.1-15.6-1.2-20-.3-9.8 2-9.3 1.8-19.5 8.3-4.1 2.5-9.1 9.3-11 14.6-4.3 12.2 1.6 28.9 13.2 37.2 6 4.2 8.7 5.4 14.9 6.4 7.4 1.2 8.7 1 46.4-4.6 14.6-2.1 28.3-4.1 30.5-4.4 2.2-.2 4.2-.5 4.5-.6.3-.2.8-.2 1.1-.2.3.1 6.3-.8 13.4-1.8 7.1-1 13.2-1.7 13.7-1.4.4.3.8.1.8-.4 0-1.7 5 0 6.2 2.1.6 1.2.8 4.8.6 8.8-.7 8.9-5.4 17.9-12.3 23.1-5.2 3.9-15.9 9.7-19.1 10.3-5.3 1-12 1.9-12.6 1.7-.5-.1-.8 14.7-.8 32.9v33.2l6.8 7.1c8.9 9.4 10.4 12.6 10.1 22.4-.2 10.1-2.7 14.9-13.4 25.1-7.4 7.1-8.7 7.9-13.1 8.5-5.2.7-11.7.2-19.9-1.4-2.7-.5-6.1-1.2-7.5-1.4-10.1-2-16.2-5.3-20.1-10.8-2.9-4.1-8.9-17.3-9.1-20.2-.1-1.5-.7-2.7-1.3-2.7-.5-.1-14.3-.3-30.5-.4-16.2-.2-30.1-.3-30.8-.4-1.2-.1-1.1-3.9.4-8.9.7-2.4.7-2.4-6.6-2.7-4.4-.1-5.1.2-5.5 1.9-.6 2.6-7.2 41.5-8 47.1-.4 2.2-.8 4.7-1 5.5-.2.8-.7 3.5-1 6-.3 2.5-.8 5.2-1 6-.2.8-.7 3.3-1 5.5-.3 2.3-.7 5-.9 6-.2 1.1-.7 4-1.1 6.5-.4 2.5-.9 5.4-1.1 6.5-.2 1.1-.9 4.9-1.4 8.5-.6 3.6-1.3 7.6-1.5 9-.6 2.9-3.5 20.5-4 23.5-.3 1.6-7.4 43.6-9 53-.1 1.1-.6 3.8-.9 6-.4 2.2-.9 5-1.1 6.1-.4 1.8 0 2.2 2.8 2.6 1.7.2 4.6.1 6.2-.2 2.7-.5 3.1-1 3.9-5.5.5-2.8 1.1-5.2 1.3-5.4.1-.2 20.7-.5 45.5-.7 39-.3 47.1-.5 50.9-1.3.3 0 0-2.4-.7-5.3-1.8-6.9-1.8-9.8.3-13.9 4.5-9.2 10.6-15.3 16.4-16.4 8-1.6 28.6-2.2 36.9-1.2 8.1 1.1 10.7 1.9 23 7.5 7.5 3.4 15 5.9 20 6.7 1.9.3 4.9 1 6.5 1.5 17.3 5.3 55.4 7.3 73 3.9 5.5-1.1 11.1-2.2 12.5-2.5 1.4-.2 3.1-.7 3.9-1 .8-.2 3-.7 4.9-1 3.2-.5 31.1-9.9 50.2-16.9 13.4-4.9 27-2.7 34.9 5.7 3.6 3.7 8.2 13.1 9.9 19.8 2.8 11.4 2.8 11.8 3.4 20.3l.2 4.7 54.1-.2 54-.3.2-5.5c.3-8.8.2-86.7-.2-95-.1-4.1-.5-9.1-.9-11-.4-1.9-.8-4.4-1-5.5-1.6-10.8-5.5-17.8-12.9-23-4.8-3.5-14.8-8.7-15.4-8.1-.3.3-1.4.1-2.3-.4-1-.5-3.7-1.2-6.1-1.6-2.4-.3-5.3-.7-6.4-.9-8.7-1.2-22.6-1.8-51-2-21.2-.1-35.1-.6-39-1.4-9.3-1.9-18.3-4.9-23.9-7.9-8.4-4.5-19.7-16.8-21.4-23.2-3-11.9 2.1-24.7 11.5-28.6 1.8-.8 3.3-2 3.4-2.7.7-8.3.2-62-.6-62.5-.5-.3-4.1-.7-8-.8-11.4-.3-19.3-2.2-25.1-5.9-9.5-6.1-15.8-13.5-18.8-22.2-1.6-4.6-1.6-5.3-.2-7 .9-1 3-3.9 4.8-6.4 3.7-5.1 2.9-5 16.3-2.9 3.9.7 14.2 2.5 23 4 8.8 1.6 17.8 3.1 20 3.4 2.2.3 12.3 1.9 22.5 3.6 20.7 3.5 30.7 4 36.3 1.7 2-.9 3.7-1.4 3.7-1.1 0 .3 1.7-.7 3.7-2.1 2.1-1.4 4.2-2.5 4.6-2.5 1.9 0 10.7-10.2 12.8-14.7 1.7-3.6 2.3-6.7 2.3-12.3.1-10.3-3.1-17.2-10.5-22.9-3-2.3-5.9-4.5-6.5-5-4.6-3.7-10.2-5.4-18.4-5.4-8-.1-16.4.6-22 1.8-2.9.6-7.8 1.3-14 2-2.5.3-5.7.8-7.1 1-1.4.3-4.1.7-6 .9-1.9.3-6.3 1-9.9 1.6-3.6.6-8.1 1.3-10 1.5-1.9.3-4.4.7-5.6 1-1.2.2-3.9.7-6 1-2.1.3-6.4 1-9.4 1.5s-7.3 1.2-9.5 1.5c-2.3.3-5 .7-6.2.9-1.4.3-3.5-1-6.9-4.6-10.9-11.2-21.3-15.9-35.4-16.3-5.2-.1-11 .1-12.8.5zM552 463.8c-1 1.3-2.4 4.8-3 7.8-2.4 11.7-15 43.9-23 59-8.1 15.3-11.2 23.8-13.4 37.4-.3 1.9-.9 4.6-1.2 6-.4 1.4-.8 7.7-.9 14-.2 10.1.1 12 2.2 16.8 3 6.8 7 12.7 11.7 17.3 4 3.8 15.9 10.3 21.6 11.7 3.9.9 16.1.9 20-.1 1.4-.4 4-.8 5.8-1.1 1.8-.2 3.8-.9 4.5-1.4.7-.5 3.8-1.9 7-3.2 3.1-1.2 5.7-2.6 5.7-3.1s.5-.9 1.1-.9c1.8 0 10.5-7.2 12.8-10.6 5.1-7.4 6.5-13.1 6.5-26.9.1-10.7-.3-14.2-2.1-19.5-3.1-9.5-12.9-31.2-22.6-50-7.5-14.6-9.1-18.7-13.6-34.9-3.2-11.3-5.8-19-6.9-19.8-2.8-2.1-10-1.3-12.2 1.5z"/></svg>